# xmcd CD database file
#
# Track frame offsets:
#	150
#	31408
#	62412
#	83229
#	104747
#	128076
#	151543
#	178258
#	209602
#	227214
#	253533
#	282684
#
# Disc length: 4095 seconds
#
# Revision: 0
# Processed by: cddbd v1.5.2PL0 Copyright (c) Steve Scherf et al.
# Submitted via: CDex 1.50beta10
#
DISCID=aa0ffd0c
DTITLE=McCoy Mrubata and Greg Hadjiyorki Georgiades - Vivid Afrika
DYEAR=2005
DGENRE=Jazz
TTITLE0=Extra Chilli
TTITLE1=Painted Skies
TTITLE2=Scented Sands
TTITLE3=Rasta of the Burning Sands
TTITLE4=Nuevolito
TTITLE5=A Brother's Song
TTITLE6=Mac's Mischief
TTITLE7=It Used to be Blue
TTITLE8=Aardseklop
TTITLE9=Tribal Mirror
TTITLE10=Vivid
TTITLE11=Tunisia
EXTD=YEAR: 2005
EXTT0=
EXTT1=
EXTT2=
EXTT3=
EXTT4=
EXTT5=
EXTT6=
EXTT7=
EXTT8=
EXTT9=
EXTT10=
EXTT11=
PLAYORDER=
